<svg xmlns="http://www.w3.org/2000/svg" viewBox="0 0 64 64" role="img" aria-label="Build-it-On">
  <defs>
    <linearGradient id="bg" x1="0" y1="0" x2="1" y2="1">
      <stop offset="0%" stop-color="#082243" />
      <stop offset="100%" stop-color="#0b3a72" />
    </linearGradient>
    <linearGradient id="stroke" x1="0" y1="0" x2="1" y2="1">
      <stop offset="0%" stop-color="#00d692" />
      <stop offset="100%" stop-color="#21a1ff" />
    </linearGradient>
  </defs>
  <rect x="4" y="4" width="56" height="56" rx="16" fill="url(#bg)" />
  <rect x="5" y="5" width="54" height="54" rx="15" fill="none" stroke="url(#stroke)" stroke-width="2" />
  <path
    d="M23 16h13c7 0 11 3 11 9 0 4-2 6-5 7 4 1 7 3 7 8 0 6-5 10-13 10H23V16zm12 13c3 0 5-1 5-4s-2-4-5-4h-5v8h5zm1 16c4 0 6-2 6-5s-2-5-6-5h-6v10h6z"
    fill="#dff6ff"
  />
  <circle cx="49" cy="47" r="7" fill="#00d692" />
</svg>
